<svg width="155" height="52" viewBox="0 0 155 52" fill="none" xmlns="http://www.w3.org/2000/svg">
    <rect x=".074" y=".395" width="154" height="51" rx="5" fill="#FFB400"/>
    <path d="M33.665 31.395h1.756V26.32h5.8v5.073h1.762V19.759h-1.761v5.057H35.42v-5.057h-1.756v11.637zm13.63-11.637H45.54v11.637h1.756V19.758zm2.558 11.637h1.755V26.99h2.5l2.364 4.404h2l-2.58-4.71c1.426-.53 2.137-1.717 2.137-3.28 0-2.141-1.33-3.647-4.029-3.647h-4.147v11.637zm1.755-5.915v-4.216h2.205c1.733 0 2.449.824 2.449 2.142 0 1.312-.716 2.074-2.426 2.074h-2.228zm8.557 5.915h7.364v-1.512H61.92v-3.562h5.159v-1.506h-5.16v-3.546h5.54v-1.51h-7.295v11.636zM74.04 19.758v11.637h1.67v-8.427h.109l3.431 8.41h1.387l3.431-8.404h.109v8.42h1.67V19.759h-2.13l-3.705 9.046h-.137l-3.704-9.046h-2.13zM88.4 31.395h7.363v-1.512h-5.608v-3.562h5.16v-1.506h-5.16v-3.546h5.54v-1.51H88.4v11.636z" fill="#2B2B2B"/>
    <g clip-path="url(#3pnseka0ea)">
        <path d="m116.855 24.728-3.576-3.576.943-.943 5.185 5.185-5.185 5.186-.943-.943 3.576-3.576h-8.114v-1.333h8.114z" fill="#2B2B2B"/>
    </g>
    <defs>
        <clipPath id="3pnseka0ea">
            <path fill="#fff" transform="translate(106.074 17.395)" d="M0 0h16v16H0z"/>
        </clipPath>
    </defs>
</svg>
