<svg width="65" height="33" viewBox="0 0 65 33" fill="none" xmlns="http://www.w3.org/2000/svg">
    <path fill-rule="evenodd" clip-rule="evenodd" d="M2 0a2 2 0 0 0-2 2v20a2 2 0 0 0 2 2h24.804L32 33l5.196-9H63a2 2 0 0 0 2-2V2a2 2 0 0 0-2-2H2z" fill="#2B2B2B"/>
    <path d="M15.959 18h1.317v-3.805h4.35V18h1.321V9.273h-1.32v3.792h-4.351V9.273h-1.317V18zm11.56.132c1.846 0 3.052-1.35 3.052-3.375 0-2.037-1.206-3.388-3.051-3.388-1.845 0-3.051 1.351-3.051 3.388 0 2.024 1.206 3.375 3.05 3.375zm.005-1.07c-1.206 0-1.768-1.052-1.768-2.31 0-1.252.562-2.317 1.768-2.317 1.198 0 1.76 1.065 1.76 2.318 0 1.257-.562 2.31-1.76 2.31zm4.47.938h1.273v-4.036c0-.882.618-1.495 1.343-1.495.707 0 1.197.469 1.197 1.18V18h1.27v-4.172c0-.788.482-1.36 1.313-1.36.673 0 1.227.376 1.227 1.262V18h1.274v-4.39c0-1.495-.835-2.24-2.02-2.24-.942 0-1.65.451-1.964 1.15h-.069c-.285-.716-.886-1.15-1.76-1.15-.865 0-1.508.43-1.78 1.15h-.082v-1.066h-1.223V18zm13.426.132c1.427 0 2.437-.703 2.727-1.768l-1.206-.218c-.23.618-.784.933-1.509.933-1.09 0-1.823-.707-1.857-1.968h4.653v-.452c0-2.365-1.415-3.29-2.898-3.29-1.824 0-3.025 1.39-3.025 3.4 0 2.034 1.184 3.363 3.115 3.363zm-1.841-3.976c.051-.929.724-1.734 1.76-1.734.988 0 1.636.733 1.64 1.734h-3.4z" fill="#fff"/>
</svg>
