<svg width="40" height="40" viewBox="0 0 40 40" fill="none" xmlns="http://www.w3.org/2000/svg">
    <circle cx="20" cy="20" r="20" fill="#F0F0F6"/>
    <g clip-path="url(#lho0wj77ba)">
        <path d="M28.5 15.287v.213H23V11h.26c.274 0 .536.089.73.247l4.208 3.443a.775.775 0 0 1 .302.597zm-5.844 1.338c-.567 0-1.031-.38-1.031-.844V11h-8.594c-.57 0-1.031.378-1.031.844v16.312c0 .466.462.844 1.031.844H27.47c.57 0 1.031-.378 1.031-.844V16.625h-5.844zm-5.362 8.455a.238.238 0 0 1-.074.043.275.275 0 0 1-.254-.034l-2.787-2.138a.196.196 0 0 1-.054-.063.161.161 0 0 1 0-.151.195.195 0 0 1 .054-.063l2.787-2.138a.245.245 0 0 1 .077-.04.279.279 0 0 1 .177.006c.028.01.053.024.074.043l.841.734a.19.19 0 0 1 .049.064.16.16 0 0 1-.009.148.2.2 0 0 1-.056.06l-1.751 1.262 1.751 1.26a.2.2 0 0 1 .056.06.16.16 0 0 1 .009.148.19.19 0 0 1-.049.065l-.841.734zm2.204 1.775-1.18-.28a.229.229 0 0 1-.138-.091.16.16 0 0 1-.02-.145l2.64-7.44a.202.202 0 0 1 .111-.113.278.278 0 0 1 .177-.016l1.18.28c.029.007.056.019.08.034a.203.203 0 0 1 .058.057.159.159 0 0 1 .02.144l-2.64 7.44a.182.182 0 0 1-.042.066.228.228 0 0 1-.07.048.267.267 0 0 1-.176.016zm6.91-3.904-2.788 2.138a.243.243 0 0 1-.077.04.282.282 0 0 1-.177-.006.24.24 0 0 1-.074-.043l-.841-.734a.188.188 0 0 1-.049-.064.159.159 0 0 1 .009-.148.2.2 0 0 1 .056-.06l1.751-1.262-1.751-1.26a.2.2 0 0 1-.056-.06.163.163 0 0 1-.009-.149.19.19 0 0 1 .049-.064l.841-.734a.236.236 0 0 1 .074-.043.275.275 0 0 1 .254.034l2.787 2.138c.023.018.042.04.054.063a.16.16 0 0 1 0 .151.195.195 0 0 1-.054.063z" fill="#767676"/>
    </g>
    <defs>
        <clipPath id="lho0wj77ba">
            <path fill="#fff" transform="translate(12 11)" d="M0 0h16.5v18H0z"/>
        </clipPath>
    </defs>
</svg>
